<svg id="mermaid-svg-6" width="100%" xmlns="http://www.w3.org/2000/svg" style="max-width: 879.6075439453125px;" viewBox="-448.4495849609375 -328.0783386230469 879.6075439453125 790.1566772460938" role="graphics-document document" aria-roledescription="architecture" xmlns:xlink="http://www.w3.org/1999/xlink"><rect width="706.905517578125" height="635" fill="#ffffff"/><style>#mermaid-svg-6{font-family:inherit;font-size:16px;fill:#333;}@keyframes edge-animation-frame{from{stroke-dashoffset:0;}}@keyframes dash{to{stroke-dashoffset:0;}}#mermaid-svg-6 .edge-animation-slow{stroke-dasharray:9,5!important;stroke-dashoffset:900;animation:dash 50s linear infinite;stroke-linecap:round;}#mermaid-svg-6 .edge-animation-fast{stroke-dasharray:9,5!important;stroke-dashoffset:900;animation:dash 20s linear infinite;stroke-linecap:round;}#mermaid-svg-6 .error-icon{fill:#552222;}#mermaid-svg-6 .error-text{fill:#552222;stroke:#552222;}#mermaid-svg-6 .edge-thickness-normal{stroke-width:1px;}#mermaid-svg-6 .edge-thickness-thick{stroke-width:3.5px;}#mermaid-svg-6 .edge-pattern-solid{stroke-dasharray:0;}#mermaid-svg-6 .edge-thickness-invisible{stroke-width:0;fill:none;}#mermaid-svg-6 .edge-pattern-dashed{stroke-dasharray:3;}#mermaid-svg-6 .edge-pattern-dotted{stroke-dasharray:2;}#mermaid-svg-6 .marker{fill:#333333;stroke:#333333;}#mermaid-svg-6 .marker.cross{stroke:#333333;}#mermaid-svg-6 svg{font-family:inherit;font-size:16px;}#mermaid-svg-6 p{margin:0;}#mermaid-svg-6 .edge{stroke-width:3;stroke:#333333;fill:none;}#mermaid-svg-6 .arrow{fill:#333333;}#mermaid-svg-6 .node-bkg{fill:none;stroke:hsl(240, 60%, 86.2745098039%);stroke-width:2px;stroke-dasharray:8;}#mermaid-svg-6 .node-icon-text{display:flex;align-items:center;}#mermaid-svg-6 .node-icon-text&gt;div{color:#fff;margin:1px;height:fit-content;text-align:center;overflow:hidden;display:-webkit-box;-webkit-box-orient:vertical;}#mermaid-svg-6 .node .neo-node{stroke:#9370DB;}#mermaid-svg-6 [data-look="neo"].node rect,#mermaid-svg-6 [data-look="neo"].cluster rect,#mermaid-svg-6 [data-look="neo"].node polygon{stroke:#9370DB;filter:drop-shadow(1px 2px 2px rgba(185, 185, 185, 1));}#mermaid-svg-6 [data-look="neo"].node path{stroke:#9370DB;stroke-width:1px;}#mermaid-svg-6 [data-look="neo"].node .outer-path{filter:drop-shadow(1px 2px 2px rgba(185, 185, 185, 1));}#mermaid-svg-6 [data-look="neo"].node .neo-line path{stroke:#9370DB;filter:none;}#mermaid-svg-6 [data-look="neo"].node circle{stroke:#9370DB;filter:drop-shadow(1px 2px 2px rgba(185, 185, 185, 1));}#mermaid-svg-6 [data-look="neo"].node circle .state-start{fill:#000000;}#mermaid-svg-6 [data-look="neo"].icon-shape .icon{fill:#9370DB;filter:drop-shadow(1px 2px 2px rgba(185, 185, 185, 1));}#mermaid-svg-6 [data-look="neo"].icon-shape .icon-neo path{stroke:#9370DB;filter:drop-shadow(1px 2px 2px rgba(185, 185, 185, 1));}#mermaid-svg-6 :root{--mermaid-font-family:inherit;}</style><g/><g class="architecture-edges"><g><path d="M 314.44958067330003,-164.07833674840933 L 115.52768228080544,-164.07833674840933 L-83.39421611168916,-164.07833674840933 " class="edge" id="mermaid-svg-6-L_internet_igw_0"/><polygon points="13.333333333333334,6.666666666666667 0,13.333333333333334 0,0" transform="translate(303.1162473399667,-170.74500341507598)" class="arrow"/><polygon points="0,6.666666666666667 13.333333333333334,0 13.333333333333334,13.333333333333334" transform="translate(-85.39421611168916,-170.74500341507598)" class="arrow"/></g><g><path d="M -123.39421611168913,-124.07833674840931 L -123.39421611168913,-45.13674716091659 L-123.39421611168913,33.80484242657613 " class="edge" id="mermaid-svg-6-L_igw_public_route_table_0"/><polygon points="0,0 13.333333333333334,0 6.666666666666667,13.333333333333334" transform="translate(-130.0608827783558,22.471509093242794)" class="arrow"/></g><g><path d="M -186.94958067330003,-81.5393852668179 L -121.27143084299132,-81.5393852668179 L-55.59328101268264,-81.5393852668179 " class="edge" id="mermaid-svg-6-L_public_security_group_private_security_group_0"/><polygon points="13.333333333333334,6.666666666666667 0,13.333333333333334 0,0" transform="translate(-66.92661434601597,-88.20605193348457)" class="arrow"/></g></g><g class="architecture-services"><g id="mermaid-svg-6-service-internet" class="architecture-service" transform="translate(314.44958067330003,-204.07833674840933)"><g dy="1em" alignment-baseline="middle" dominant-baseline="middle" text-anchor="middle" transform="translate(40, 80)"><g><rect class="background" style="stroke: none"/><text y="-10.1" style=""><tspan class="text-outer-tspan row" x="0" y="-0.1em" dy="1.1em"><tspan font-style="normal" class="text-inner-tspan" font-weight="normal">Internet</tspan></tspan></text></g></g><g><g><svg xmlns="http://www.w3.org/2000/svg" width="80" height="80" viewBox="0 0 48 48">

    <title>Icon-Resource/General-Resource/Res_Internet-alt1_48_Light</title>
    <g id="Icon-Resource/General-Resource/Res_Internet-alt1_1" stroke="none" stroke-width="1" fill="none" fill-rule="evenodd">
        <path d="M23.61,22.0490004 C27.501,22.0490004 31.187,23.5440004 33.99,26.2600004 L32.597,27.6950004 C30.171,25.3440004 26.978,24.0490004 23.61,24.0490004 C20.058,24.0490004 16.622,25.5400004 14.183,28.1410004 L12.724,26.7720004 C15.54,23.7710004 19.507,22.0490004 23.61,22.0490004 M23.61,25.6830004 C26.684,25.6830004 29.56,26.9020004 31.708,29.1130004 L30.272,30.5060004 C28.506,28.6860004 26.139,27.6830004 23.61,27.6830004 C20.974,27.6830004 18.451,28.8120004 16.688,30.7800004 L15.198,29.4460004 C17.34,27.0550004 20.406,25.6830004 23.61,25.6830004 M23.61,29.3160004 C25.713,29.3160004 27.748,30.1970004 29.192,31.7360004 L27.735,33.1050004 C26.651,31.9510004 25.186,31.3160004 23.61,31.3160004 C21.864,31.3160004 20.24,32.1070004 19.156,33.4870004 L17.584,32.2510004 C19.049,30.3860004 21.246,29.3160004 23.61,29.3160004 M42.384,33.6750004 C40.489,35.5690004 37.531,35.5890004 37.491,35.5890004 L32.722,35.5840004 L9.029,35.5610004 C8.419,35.5600004 7.823,35.3960004 7.307,35.0870004 C5.798,34.1810004 4,32.4420004 4,29.2970004 C4,25.1660004 7.006,23.7700004 8.853,23.3020004 C8.873,23.2990004 8.892,23.2950004 8.911,23.2900004 C9.413,23.1770004 9.746,22.7000004 9.681,22.1900004 C9.634,21.8210004 9.611,21.4440004 9.611,21.0670004 C9.611,17.6880004 12.068,14.0500004 15.204,12.7840004 C20.673,10.5700004 24.544,13.4740004 25.955,14.8220004 C27.099,15.9160004 27.992,17.3150004 28.609,18.9800004 C28.735,19.3200004 29.036,19.5660004 29.395,19.6200004 C29.762,19.6760004 30.116,19.5310004 30.337,19.2440004 C31.217,18.1090004 32.646,17.6360004 33.981,18.0390004 C35.525,18.5070004 36.506,19.9730004 36.684,22.0690004 C36.622,22.5970004 36.986,23.0850004 37.515,23.1720004 C38.042,23.2590004 39.424,23.5580004 40.895,24.4590004 C43.701,26.1790004 44.025,27.9480004 44.025,29.1290004 C44.025,31.0590004 43.473,32.5880004 42.384,33.6750004 M41.94,22.7540004 C40.926,22.1320004 39.75,21.6420004 38.615,21.3600004 C38.233,18.7220004 36.751,16.7890004 34.561,16.1250004 C32.937,15.6360004 31.233,15.9450004 29.896,16.9130004 C29.227,15.5490004 28.37,14.3630004 27.338,13.3770004 C23.816,10.0100004 19.001,9.09500036 14.456,10.9290004 C10.553,12.5040004 7.611,16.8620004 7.611,21.0670004 C7.611,21.2380004 7.615,21.4090004 7.623,21.5810004 C5.461,22.3050004 2,24.2530004 2,29.2970004 C2,33.5920004 4.68,35.8430004 6.279,36.8020004 C7.105,37.2970004 8.055,37.5600004 9.027,37.5610004 L37.483,37.5890004 L37.496,37.5890004 C37.777,37.5890004 41.332,37.5390004 43.783,35.1050004 C45.27,33.6270004 46.025,31.6170004 46.025,29.1290004 C46.025,26.5250004 44.689,24.4390004 41.94,22.7540004" id="Fill-5" fill="#232F3D"/>
    </g></svg></g></g></g><g id="mermaid-svg-6-service-igw" class="architecture-service" transform="translate(-163.39421611168913,-204.07833674840933)"><g dy="1em" alignment-baseline="middle" dominant-baseline="middle" text-anchor="middle" transform="translate(40, 80)"><g><rect class="background" style="stroke: none"/><text y="-10.1" style=""><tspan class="text-outer-tspan row" x="0" y="-0.1em" dy="1.1em"><tspan font-style="normal" class="text-inner-tspan" font-weight="normal">Internet</tspan></tspan><tspan class="text-outer-tspan row" x="0" y="1em" dy="1.1em"><tspan font-style="normal" class="text-inner-tspan" font-weight="normal">Gateway</tspan></tspan></text></g></g><g><g><svg xmlns="http://www.w3.org/2000/svg" width="80" height="80" viewBox="0 0 48 48">

    <title>Icon-Resource/Networking-and-Content-Delivery/Res_Amazon-VPC_Internet-Gateway_48</title>
    <g id="Icon-Resource/Networking-and-Content-Delivery/Res_Amazon-VPC_Internet-Gateway_1" stroke="none" stroke-width="1" fill="none" fill-rule="evenodd">
        <path d="M33.4312,35.1778 L31.9332,35.1778 L31.9332,17.5018 C31.9332,17.1088 31.7022,16.7518 31.3442,16.5908 L31.2522,16.5488 C29.2432,15.6418 27.1642,14.7028 24.1762,14.7028 C21.0532,14.7028 18.7612,15.7118 16.4952,16.8368 C16.1552,17.0058 15.9402,17.3528 15.9402,17.7328 L15.9402,35.1778 L14.4772,35.1778 L14.4772,16.3118 C16.9112,14.3328 20.4202,13.2048 24.1862,13.2048 C27.6872,13.2048 31.0252,14.2018 33.4312,15.9528 L33.4312,35.1778 Z M24.1862,11.2048 C19.7612,11.2048 15.6172,12.6238 12.8152,15.0998 C12.6002,15.2888 12.4772,15.5618 12.4772,15.8488 L12.4772,36.1778 C12.4772,36.7308 12.9242,37.1778 13.4772,37.1778 L16.9402,37.1778 C17.4932,37.1778 17.9402,36.7308 17.9402,36.1778 L17.9402,18.3558 C19.8592,17.4288 21.7192,16.7028 24.1762,16.7028 C26.5112,16.7028 28.2092,17.3778 29.9332,18.1488 L29.9332,36.1778 C29.9332,36.7308 30.3802,37.1778 30.9332,37.1778 L34.4312,37.1778 C34.9842,37.1778 35.4312,36.7308 35.4312,36.1778 L35.4312,15.4578 C35.4312,15.1538 35.2922,14.8658 35.0532,14.6748 C32.2792,12.4698 28.3182,11.2048 24.1862,11.2048 L24.1862,11.2048 Z M23.9542,43.9088 C12.9522,43.9088 3.9992,34.9568 3.9992,23.9538 C3.9992,12.9508 12.9522,3.9998 23.9542,3.9998 C34.9572,3.9998 43.9092,12.9508 43.9092,23.9538 C43.9092,34.9568 34.9572,43.9088 23.9542,43.9088 L23.9542,43.9088 Z M23.9542,1.9998 C11.8482,1.9998 1.9992,11.8488 1.9992,23.9538 C1.9992,36.0608 11.8482,45.9088 23.9542,45.9088 C36.0602,45.9088 45.9092,36.0608 45.9092,23.9538 C45.9092,11.8488 36.0602,1.9998 23.9542,1.9998 L23.9542,1.9998 Z" id="AWS-Amazon-VPC_Internet-gateway_Resource-Icon_light-bg1" fill="#8C4FFF"/>
    </g></svg></g></g></g><g id="mermaid-svg-6-service-public_route_table" class="architecture-service" transform="translate(-163.39421611168913,33.804842426576144)"><g dy="1em" alignment-baseline="middle" dominant-baseline="middle" text-anchor="middle" transform="translate(40, 80)"><g><rect class="background" style="stroke: none"/><text y="-10.1" style=""><tspan class="text-outer-tspan row" x="0" y="-0.1em" dy="1.1em"><tspan font-style="normal" class="text-inner-tspan" font-weight="normal">Public</tspan><tspan font-style="normal" class="text-inner-tspan" font-weight="normal"> Route</tspan></tspan><tspan class="text-outer-tspan row" x="0" y="1em" dy="1.1em"><tspan font-style="normal" class="text-inner-tspan" font-weight="normal">Table</tspan></tspan></text></g></g><g><path class="node-bkg" id="mermaid-svg-6-node-public_route_table" d="M0,80 V5 Q0,0 5,0 H75 Q80,0 80,5 V80 Z"/></g></g><g id="mermaid-svg-6-service-private_route_table" class="architecture-service" transform="translate(20.14773732716006,199.57833674840953)"><g dy="1em" alignment-baseline="middle" dominant-baseline="middle" text-anchor="middle" transform="translate(40, 80)"><g><rect class="background" style="stroke: none"/><text y="-10.1" style=""><tspan class="text-outer-tspan row" x="0" y="-0.1em" dy="1.1em"><tspan font-style="normal" class="text-inner-tspan" font-weight="normal">Private</tspan><tspan font-style="normal" class="text-inner-tspan" font-weight="normal"> Route</tspan></tspan><tspan class="text-outer-tspan row" x="0" y="1em" dy="1.1em"><tspan font-style="normal" class="text-inner-tspan" font-weight="normal">Table</tspan></tspan></text></g></g><g><path class="node-bkg" id="mermaid-svg-6-node-private_route_table" d="M0,80 V5 Q0,0 5,0 H75 Q80,0 80,5 V80 Z"/></g></g><g id="mermaid-svg-6-service-public_security_group" class="architecture-service" transform="translate(-266.94958067330003,-121.5393852668179)"><g dy="1em" alignment-baseline="middle" dominant-baseline="middle" text-anchor="middle" transform="translate(40, 80)"><g><rect class="background" style="stroke: none"/><text y="-10.1" style=""><tspan class="text-outer-tspan row" x="0" y="-0.1em" dy="1.1em"><tspan font-style="normal" class="text-inner-tspan" font-weight="normal">Public</tspan><tspan font-style="normal" class="text-inner-tspan" font-weight="normal"> Web</tspan></tspan><tspan class="text-outer-tspan row" x="0" y="1em" dy="1.1em"><tspan font-style="normal" class="text-inner-tspan" font-weight="normal">Security</tspan><tspan font-style="normal" class="text-inner-tspan" font-weight="normal"> Group</tspan></tspan></text></g></g><g><path class="node-bkg" id="mermaid-svg-6-node-public_security_group" d="M0,80 V5 Q0,0 5,0 H75 Q80,0 80,5 V80 Z"/></g></g><g id="mermaid-svg-6-service-private_security_group" class="architecture-service" transform="translate(-55.59328101268264,-121.5393852668179)"><g dy="1em" alignment-baseline="middle" dominant-baseline="middle" text-anchor="middle" transform="translate(40, 80)"><g><rect class="background" style="stroke: none"/><text y="-10.1" style=""><tspan class="text-outer-tspan row" x="0" y="-0.1em" dy="1.1em"><tspan font-style="normal" class="text-inner-tspan" font-weight="normal">Private</tspan></tspan><tspan class="text-outer-tspan row" x="0" y="1em" dy="1.1em"><tspan font-style="normal" class="text-inner-tspan" font-weight="normal">Application</tspan></tspan><tspan class="text-outer-tspan row" x="0" y="2.1em" dy="1.1em"><tspan font-style="normal" class="text-inner-tspan" font-weight="normal">Security</tspan><tspan font-style="normal" class="text-inner-tspan" font-weight="normal"> Group</tspan></tspan></text></g></g><g><path class="node-bkg" id="mermaid-svg-6-node-private_security_group" d="M0,80 V5 Q0,0 5,0 H75 Q80,0 80,5 V80 Z"/></g></g></g><g class="architecture-groups"><rect id="mermaid-svg-6-group-region" x="-408.44958067330003" y="-288.0783367484093" width="664.5973180004601" height="710.1566734968188" class="node-bkg"/><g><g transform="translate(-407.44958067330003, -287.0783367484093)"><g><svg xmlns="http://www.w3.org/2000/svg" width="30" height="30" viewBox="0 0 40 40">

    <title>Icon-Architecture-Group/32/Region_32</title>
    <g id="Icon-Architecture-Group/32/Region_1" stroke="none" stroke-width="1" fill="none" fill-rule="evenodd">
        <rect id="Rectangle6" fill="#00A4A6" x="0" y="0" width="40" height="40"/>
        <path d="M14,20.026 L14,11.026 L29.293,11.026 L25.146,15.172 C24.951,15.368 24.951,15.684 25.146,15.88 L29.293,20.026 L14,20.026 Z M26.207,15.526 L30.854,10.88 C30.996,10.736 31.039,10.522 30.962,10.335 C30.885,10.148 30.702,10.026 30.5,10.026 L14,10.026 L14,8.97 C14.596,8.76 15.026,8.198 15.026,7.531 C15.026,6.687 14.34,6 13.495,6 C12.65,6 11.963,6.687 11.963,7.531 C11.963,8.201 12.398,8.766 13,8.973 L13,33.026 L10,33.026 L10,34.026 L17,34.026 L17,33.026 L14,33.026 L14,21.026 L30.5,21.026 C30.702,21.026 30.885,20.904 30.962,20.717 C31.039,20.53 30.996,20.316 30.854,20.172 L26.207,15.526 Z" id="Fill-6" fill="#FFFFFF"/>
    </g></svg></g></g><g dy="1em" alignment-baseline="middle" dominant-baseline="start" text-anchor="start" transform="translate(-374.44958067330003, -281.0783367484093)"><g><rect class="background" style="stroke: none"/><text y="-10.1" style=""><tspan class="text-outer-tspan row" x="0" y="-0.1em" dy="1.1em"><tspan font-style="normal" class="text-inner-tspan" font-weight="normal">AWS</tspan><tspan font-style="normal" class="text-inner-tspan" font-weight="normal"> Region</tspan></tspan></text></g></g></g><rect id="mermaid-svg-6-group-vpc" x="-366.94958067330003" y="-246.5783367484093" width="581.5973180004601" height="627.1566734968188" class="node-bkg"/><g><g transform="translate(-365.94958067330003, -245.5783367484093)"><g><svg xmlns="http://www.w3.org/2000/svg" width="30" height="30" viewBox="0 0 40 40">

    <title>Icon-Architecture-Group/32/Virtual-private-cloud-VPC_32</title>
    <g id="Icon-Architecture-Group/32/Virtual-private-cloud-VPC_1" stroke="none" stroke-width="1" fill="none" fill-rule="evenodd">
        <rect id="Rectangle7" fill="#8C4FFF" x="0" y="0" width="40" height="40"/>
        <path d="M30.9707,21.0293596 L28.0267,19.7663596 L28.0267,30.2553596 C30.5717,29.9033596 30.9587,27.2873596 30.9747,27.1683596 L30.9707,21.0293596 Z M27.0267,30.2693596 L27.0267,19.7593596 L23.9917,21.0323596 L23.9917,27.2333596 C24.0047,27.2873596 24.4367,30.0003596 27.0267,30.2693596 L27.0267,30.2693596 Z M27.3327,18.5473596 C27.4567,18.4943596 27.5987,18.4953596 27.7237,18.5483596 L31.6677,20.2403596 C31.8517,20.3193596 31.9707,20.4993596 31.9707,20.6993596 L31.9707,27.2333596 C31.7877,28.6803596 30.6137,31.2963596 27.4437,31.2963596 C24.3687,31.2963596 23.1897,28.6843596 22.9957,27.3023596 L22.9917,20.6993596 C22.9917,20.4983596 23.1127,20.3163596 23.2977,20.2383596 L27.3327,18.5473596 Z M32.9827022,19.1843596 L27.5217,16.7783596 L21.9917,19.1053596 L21.9917,26.2333596 C21.9907,26.2753596 21.9377,29.1013596 23.6487,30.8563596 C24.5657,31.7973596 25.8427,32.2753596 27.4437,32.2753596 C29.0457,32.2753596 30.3307,31.7963596 31.2627,30.8533596 C32.9977,29.0953596 32.9827022,26.2683596 32.9827022,26.2403596 L32.9827022,19.1843596 Z M31.9797,31.5503596 C30.8527,32.6943596 29.3257,33.2753596 27.4437,33.2753596 C25.5597,33.2753596 24.0397,32.6943596 22.9267,31.5483596 C20.9217,29.4853596 20.9877,26.3513596 20.9917,26.2193596 L20.9917,18.7733596 C20.9917,18.5723596 21.1117,18.3903596 21.2967,18.3123596 L27.3317,15.7723596 C27.4587,15.7203596 27.6027,15.7193596 27.7277,15.7763596 L33.6837,18.4013596 C33.8657,18.4813596 33.9827,18.6603596 33.9827,18.8583596 L33.9827,26.2333596 C33.9847,26.3583596 34.0097,29.4883596 31.9797,31.5503596 L31.9797,31.5503596 Z M10.9917,24.2363596 L18.9917,24.2363596 L18.9917,25.2363596 L10.9917,25.2363596 C8.1807,25.2363596 6.1807,23.2203596 6.0127,20.2203596 C6.0007,20.1093596 5.9997,19.9753596 5.9997,19.8413596 C5.9997,17.3323596 7.3177,15.6183596 9.8167,14.8623596 C9.7977,14.6353596 9.7847,14.3963596 9.7847,14.2153596 C9.7847,11.2993596 11.3617,8.77035958 13.8017,7.77035958 C17.0997,6.42235958 20.8437,6.87635958 22.9077,8.87435958 C23.6527,9.59835958 24.2317,10.4163596 24.6677,11.3593596 C25.2767,10.9093596 26.0677,10.6983596 27.0167,10.7453596 C28.7967,10.8353596 30.1657,12.4583596 30.4497,14.7523596 C31.9477,14.8763596 32.9347,15.6353596 33.4597,17.0603596 L32.5227,17.4063596 C32.0947,16.2493596 31.3147,15.7333596 29.9917,15.7333596 C29.7267,15.7333596 29.5077,15.5273596 29.4917,15.2633596 C29.3537,12.9253596 28.0857,11.8003596 26.9657,11.7443596 C26.0207,11.6913596 25.3207,11.9633596 24.8867,12.5353596 C24.7757,12.6803596 24.6017,12.7523596 24.4137,12.7283596 C24.2337,12.7003596 24.0817,12.5773596 24.0187,12.4053596 C23.6147,11.3023596 23.0237,10.3823596 22.2117,9.59135958 C20.4237,7.86135958 17.1217,7.49235958 14.1807,8.69635958 C12.1177,9.54135958 10.7847,11.7073596 10.7847,14.2153596 C10.7847,14.4883596 10.8197,14.9113596 10.8507,15.1743596 C10.8807,15.4253596 10.7197,15.6583596 10.4747,15.7183596 C8.1687,16.2903596 6.9997,17.6773596 6.9997,19.8413596 C6.9997,19.9423596 6.9987,20.0423596 7.0087,20.1433596 C7.1497,22.6383596 8.7117,24.2363596 10.9917,24.2363596 L10.9917,24.2363596 Z" id="Fill-7" fill="#FFFFFF"/>
    </g></svg></g></g><g dy="1em" alignment-baseline="middle" dominant-baseline="start" text-anchor="start" transform="translate(-332.94958067330003, -239.5783367484093)"><g><rect class="background" style="stroke: none"/><text y="-10.1" style=""><tspan class="text-outer-tspan row" x="0" y="-0.1em" dy="1.1em"><tspan font-style="normal" class="text-inner-tspan" font-weight="normal">CAL</tspan><tspan font-style="normal" class="text-inner-tspan" font-weight="normal"> 001</tspan><tspan font-style="normal" class="text-inner-tspan" font-weight="normal"> VPC</tspan></tspan></text></g></g></g><rect id="mermaid-svg-6-group-public_subnet" x="-233.89421611168916" y="-8.695157573423856" width="221.00000000000003" height="182" class="node-bkg"/><g><g transform="translate(-232.89421611168916, -7.695157573423856)"><g><svg xmlns="http://www.w3.org/2000/svg" width="30" height="30" viewBox="0 0 40 40">

    <title>Icon-Architecture-Group/32/Public-subnet_32</title>
    <g id="Icon-Architecture-Group/32/Public-subnet_1" stroke="none" stroke-width="1" fill="none" fill-rule="evenodd">
        <rect id="Rectangle8" fill="#7AA116" x="0" y="0" width="40" height="40"/>
        <path d="M19.536,22.049 C20.642,22.049 21.542,22.948 21.542,24.054 C21.542,25.16 20.642,26.06 19.536,26.06 C18.43,26.06 17.53,25.16 17.53,24.054 C17.53,22.948 18.43,22.049 19.536,22.049 L19.536,22.049 Z M19.012,27.007 L19.012,30.501 L20.012,30.501 L20.012,27.012 C21.442,26.782 22.542,25.549 22.542,24.054 C22.542,22.397 21.193,21.049 19.536,21.049 C17.879,21.049 16.53,22.397 16.53,24.054 C16.53,25.532 17.604,26.757 19.012,27.007 L19.012,27.007 Z M10,33.014 L29.012,33.014 L29.012,18 L10,18 L10,33.014 Z M14.046,12.484 C14.046,9.46 16.506,7 19.529,7 C22.553,7 25.012,9.46 25.012,12.484 L25.012,17 L14.046,17 L14.046,12.484 Z M29.512,17 L26.012,17 L26.012,12.484 C26.012,8.908 23.103,6 19.529,6 C15.954,6 13.046,8.908 13.046,12.484 L13.046,17 L9.5,17 C9.223,17 9,17.224 9,17.5 L9,33.514 C9,33.79 9.223,34.014 9.5,34.014 L29.512,34.014 C29.788,34.014 30.012,33.79 30.012,33.514 L30.012,17.5 C30.012,17.224 29.788,17 29.512,17 L29.512,17 Z" id="Fill-8" fill="#FFFFFF"/>
    </g></svg></g></g><g dy="1em" alignment-baseline="middle" dominant-baseline="start" text-anchor="start" transform="translate(-199.89421611168916, -1.695157573423856)"><g><rect class="background" style="stroke: none"/><text y="-10.1" style=""><tspan class="text-outer-tspan row" x="0" y="-0.1em" dy="1.1em"><tspan font-style="normal" class="text-inner-tspan" font-weight="normal">Public</tspan><tspan font-style="normal" class="text-inner-tspan" font-weight="normal"> Subnet</tspan></tspan></text></g></g></g><rect id="mermaid-svg-6-group-private_subnet" x="-52.85226267283994" y="157.07833674840953" width="226" height="182" class="node-bkg"/><g><g transform="translate(-51.85226267283994, 158.07833674840953)"><g><svg xmlns="http://www.w3.org/2000/svg" width="30" height="30" viewBox="0 0 40 40">

    <title>Icon-Architecture-Group/32/Private-subnet_32</title>
    <g id="Icon-Architecture-Group/32/Private-subnet_1" stroke="none" stroke-width="1" fill="none" fill-rule="evenodd">
        <rect id="Rectangle9" fill="#00A4A6" x="0" y="0" width="40" height="40"/>
        <path d="M19.536,22.049 C20.642,22.049 21.542,22.948 21.542,24.054 C21.542,25.16 20.642,26.06 19.536,26.06 C18.43,26.06 17.53,25.16 17.53,24.054 C17.53,22.948 18.43,22.049 19.536,22.049 L19.536,22.049 Z M19.012,27.007 L19.012,30.501 L20.012,30.501 L20.012,27.012 C21.442,26.782 22.542,25.549 22.542,24.054 C22.542,22.397 21.193,21.049 19.536,21.049 C17.879,21.049 16.53,22.397 16.53,24.054 C16.53,25.532 17.604,26.757 19.012,27.007 L19.012,27.007 Z M10,33.014 L29.012,33.014 L29.012,18 L10,18 L10,33.014 Z M14.046,12.484 C14.046,9.46 16.506,7 19.529,7 C22.553,7 25.012,9.46 25.012,12.484 L25.012,17 L14.046,17 L14.046,12.484 Z M29.512,17 L26.012,17 L26.012,12.484 C26.012,8.908 23.103,6 19.529,6 C15.954,6 13.046,8.908 13.046,12.484 L13.046,17 L9.5,17 C9.223,17 9,17.224 9,17.5 L9,33.514 C9,33.79 9.223,34.014 9.5,34.014 L29.512,34.014 C29.788,34.014 30.012,33.79 30.012,33.514 L30.012,17.5 C30.012,17.224 29.788,17 29.512,17 L29.512,17 Z" id="Fill-9" fill="#FFFFFF"/>
    </g></svg></g></g><g dy="1em" alignment-baseline="middle" dominant-baseline="start" text-anchor="start" transform="translate(-18.85226267283994, 164.07833674840953)"><g><rect class="background" style="stroke: none"/><text y="-10.1" style=""><tspan class="text-outer-tspan row" x="0" y="-0.1em" dy="1.1em"><tspan font-style="normal" class="text-inner-tspan" font-weight="normal">Private</tspan><tspan font-style="normal" class="text-inner-tspan" font-weight="normal"> Subnet</tspan></tspan></text></g></g></g></g></svg>